<?xml version="1.0" encoding="UTF-8"?>
<!DOCTYPE svg PUBLIC "-//W3C//DTD SVG 1.1//EN" "http://www.w3.org/Graphics/SVG/1.1/DTD/svg11.dtd">
<!-- Creator: CorelDRAW -->
<svg xmlns="http://www.w3.org/2000/svg" xml:space="preserve" width="2048px" height="2048px" style="shape-rendering:geometricPrecision; text-rendering:geometricPrecision; image-rendering:optimizeQuality; fill-rule:evenodd; clip-rule:evenodd"
viewBox="0 0 2048 2048"
 xmlns:xlink="http://www.w3.org/1999/xlink">
 <defs>
  <style type="text/css">
   <![CDATA[
    .fil0 {fill:none}
    .fil3 {fill:#888888}
    .fil8 {fill:#A0A0A0}
    .fil5 {fill:#616161;fill-rule:nonzero}
    .fil1 {fill:#888888;fill-rule:nonzero}
    .fil6 {fill:#A0A0A0;fill-rule:nonzero}
    .fil2 {fill:#A8A8A8;fill-rule:nonzero}
    .fil7 {fill:#BFC0C0;fill-rule:nonzero}
    .fil4 {fill:#FFFFFE;fill-rule:nonzero}
   ]]>
  </style>
 </defs>
 <g id="Layer_x0020_1">
  <metadata id="CorelCorpID_0Corel-Layer"/>
  <rect class="fil0" width="2048" height="2048"/>
  <rect class="fil0" x="255.999" y="255.999" width="1536" height="1536"/>
  <g id="_348170824">
   <g>
    <g>
     <polygon id="_348366152" class="fil1" points="1315.12,584.198 1450.18,524.878 1468.9,516.657 1478.14,535.001 1847.87,1269.37 1858.1,1289.68 1837.29,1298.81 1125.11,1611.61 1104.32,1620.74 1096.28,1599.47 805.672,830.351 798.414,811.139 817.131,802.918 949.407,744.82 "/>
     <path id="_348365960" class="fil2" d="M1450.18 524.878l18.7169 -8.22048 9.23623 18.3437 289.877 575.751 0.0767717 0.153543 -734.517 322.605 -0.227953 -0.602363 -227.671 -602.558 -7.25906 -19.2118 18.7169 -8.22166c475.544,-208.862 464.077,-203.825 633.051,-278.04z"/>
     <path id="_348365816" class="fil3" d="M1326.68 673.509c21.0378,-9.23977 44.7213,-9.73702 66.1264,-1.39488 21.4051,8.33977 38.5087,24.7288 47.7485,45.7666 9.23032,21.0166 9.68977,44.6788 1.36654,66.0579 -8.33505,21.411 -24.6673,38.589 -45.7288,47.8382 -21.0437,9.24331 -44.7307,9.73938 -66.143,1.39725 -21.411,-8.34331 -38.5217,-24.737 -47.7638,-45.7807 -9.2504,-21.0626 -9.66024,-44.7626 -1.31221,-66.1713 8.33623,-21.3768 24.6862,-38.4815 45.7063,-47.713z"/>
     <path id="_348365696" class="fil3" d="M1010.16 812.528c21.0378,-9.23977 44.7201,-9.73702 66.1252,-1.39488 21.4051,8.33977 38.5087,24.7288 47.7485,45.7666 9.2315,21.0166 9.68977,44.6788 1.36654,66.0579 -8.33386,21.411 -24.6673,38.589 -45.7276,47.8382 -21.0437,9.24331 -44.7319,9.73938 -66.143,1.39725 -21.411,-8.34449 -38.5217,-24.737 -47.765,-45.7807 -9.2504,-21.0626 -9.65906,-44.7638 -1.31102,-66.1713 8.33623,-21.378 24.6851,-38.4815 45.7063,-47.713z"/>
     <path id="_348365624" class="fil4" d="M1335.37 693.291c16.3843,-7.19646 34.1374,-7.06772 49.5922,-1.04528 15.4547,6.02126 28.6146,17.9398 35.8099,34.3229 7.17284,16.3299 7.03583,34.0677 1.01575,49.5307 -6.04371,15.5256 -17.9492,28.7209 -34.2827,35.8949 -16.3937,7.20001 -34.1528,7.07008 -49.6099,1.04646 -15.4654,-6.02599 -28.6299,-17.9516 -35.8264,-34.337 -7.17402,-16.3347 -7.0193,-34.1055 -0.96378,-49.6311 6.02599,-15.4559 17.9244,-28.604 34.265,-35.7815z"/>
     <path id="_348365552" class="fil4" d="M1023.95 830.322c16.9323,-5.78622 34.6122,-4.15866 49.5024,3.14764 14.8914,7.3063 26.9965,20.2937 32.7839,37.226 5.76615,16.878 4.1315,34.539 -3.17362,49.4398 -7.33465,14.9599 -20.3114,27.1016 -37.1918,32.8701 -16.9441,5.78977 -34.6252,4.15985 -49.5213,-3.14646 -14.9008,-7.31339 -27.0107,-20.3079 -32.7981,-37.2425 -5.76851,-16.8815 -4.1126,-34.5768 3.23268,-49.5355 7.31221,-14.8925 20.2772,-26.9882 37.1658,-32.7591z"/>
     <path id="_348365456" class="fil5" d="M1060.04 860.816c-7.88505,-3.86929 -17.2524,-4.72914 -26.2252,-1.66299 -9.07914,3.10276 -16.0122,9.53032 -19.8839,17.413 -3.82087,7.78347 -4.63701,17.1331 -1.54134,26.1898 3.06969,8.98229 9.49016,15.874 17.387,19.7492 7.89095,3.87048 17.2677,4.73386 26.2536,1.66181 9.04961,-3.09095 15.9402,-9.45946 19.7575,-17.2477 3.86929,-7.89331 4.71496,-17.3114 1.61575,-26.3788 -3.06614,-8.97402 -9.48072,-15.8551 -17.3634,-19.7244z"/>
     <path id="_348172072" class="fil5" d="M1376.56 721.797c-7.88505,-3.86929 -17.2524,-4.72914 -26.2252,-1.66299 -9.07914,3.10276 -16.0122,9.53032 -19.8827,17.413 -3.82205,7.78347 -4.63701,17.1319 -1.54252,26.1898 3.06969,8.98229 9.49016,15.874 17.387,19.748 7.89095,3.87166 17.2677,4.73386 26.2536,1.66299 9.04961,-3.09095 15.9402,-9.46064 19.7575,-17.2477 3.86929,-7.89331 4.71496,-17.3114 1.61575,-26.3788 -3.06614,-8.97402 -9.47953,-15.8563 -17.3634,-19.7244z"/>
    </g>
    <path id="_348171880" class="fil5" d="M1016.51 880.542c-66.6355,-153.089 -69.3107,-275.313 -35.2441,-347.314 14.6173,-30.8918 35.9882,-53.1839 62.2441,-65.6067 26.4071,-12.4937 57.0756,-14.7012 90.1075,-5.34095 74.041,20.9858 162.064,102.684 238.524,261.236l-38.8004 18.7016c-70.5178,-146.229 -147.985,-220.524 -211.388,-238.494 -22.6547,-6.42048 -43.0725,-5.19922 -60.0508,2.83347 -17.1284,8.10473 -31.4481,23.4437 -41.7248,45.1642 -29.341,62.0115 -25.402,171.033 35.7449,311.511l-39.4122 17.3091z"/>
   </g>
   <g>
    <polygon id="_348171736" class="fil6" points="1129.9,708.293 1274.3,766.849 1294.31,774.964 1287.23,795.468 1003.62,1616.32 995.776,1639.01 973.54,1630 212.143,1321.24 189.906,1312.22 200.088,1290.47 568.294,503.933 577.491,484.285 597.502,492.4 738.921,549.746 "/>
    <path id="_348171544" class="fil7" d="M1274.3 766.848l20.0103 8.11536 -7.00749 20.3173 -220.343 637.708 -784.638 -318.18 286.047 -611.064 9.12166 -19.4599 20.0103 8.11418c508.407,206.164 496.147,201.193 676.799,274.448z"/>
    <path id="_348171400" class="fil8" d="M1070.81 782.834c22.4917,9.12166 40.3122,26.6847 49.7658,49.0347 9.45237,22.3477 9.64371,47.3681 0.523229,69.8587 -9.11221,22.4705 -26.687,40.2473 -49.0028,49.6937 -22.3488,9.46182 -47.3835,9.75001 -69.9001,0.618898 -22.4988,-9.12284 -40.3229,-26.6894 -49.7788,-49.0453 -9.45473,-22.3547 -9.64725,-47.3835 -0.52441,-69.8812 9.13111,-22.5189 26.7721,-40.2863 49.128,-49.7351 22.3252,-9.43583 47.3162,-9.6567 69.789,-0.544489z"/>
    <path id="_348171280" class="fil8" d="M732.412 645.611c22.4917,9.12048 40.3122,26.6847 49.7646,49.0335 9.45355,22.3488 9.64489,47.3681 0.52441,69.8599 -9.11221,22.4693 -26.687,40.2461 -49.0028,49.6937 -22.3488,9.46064 -47.3847,9.75001 -69.9012,0.618898 -22.4977,-9.12284 -40.3217,-26.6906 -49.7776,-49.0453 -9.45473,-22.3547 -9.64843,-47.3847 -0.52441,-69.8823 9.13111,-22.5177 26.7721,-40.2851 49.128,-49.7339 22.3252,-9.43702 47.3162,-9.65788 69.789,-0.544489z"/>
    <path id="_348171208" class="fil4" d="M1062.23 803.984c17.5169,7.10316 30.4973,20.6386 37.3217,36.7737 6.8256,16.1362 7.49646,34.878 0.393307,52.3937 -7.07953,17.4591 -20.6079,30.4205 -36.75,37.2532 -16.2059,6.86103 -34.9642,7.56733 -52.4268,0.486615 -17.5264,-7.10788 -30.5091,-20.648 -37.3347,-36.7866 -6.83032,-16.148 -7.49764,-34.8981 -0.394488,-52.415 7.08071,-17.4638 20.6492,-30.437 36.8634,-37.2886 16.1398,-6.82323 34.8579,-7.50119 52.3276,-0.416929z"/>
    <path id="_348171136" class="fil4" d="M729.103 669.162c16.852,8.55591 28.6429,23.139 34.0796,39.7949 5.4378,16.6547 4.52363,35.3859 -4.03347,52.239 -8.52993,16.7988 -23.1036,28.5697 -39.7654,34.0158 -16.728,5.46615 -35.4792,4.58622 -52.2804,-3.94488 -16.8638,-8.56182 -28.6547,-23.1484 -34.0949,-39.8079 -5.44016,-16.6677 -4.52244,-35.4071 4.03583,-52.2615 8.53111,-16.8036 23.1461,-28.5839 39.8811,-34.0418 16.6606,-5.43426 35.3681,-4.52835 52.1776,4.0063z"/>
    <path id="_348171064" class="fil5" d="M732.596 718.942c-2.87835,-8.8193 -9.12875,-16.5449 -18.0579,-21.0792 -9.03662,-4.58741 -19.0099,-5.10237 -27.8292,-2.22638 -8.70827,2.84055 -16.3854,9.10985 -20.9634,18.124 -4.5378,8.93977 -5.02678,18.8776 -2.14252,27.7099 2.88189,8.82638 9.13465,16.5602 18.0803,21.1004 9.00591,4.57441 18.9024,5.09882 27.6095,2.25236 8.82638,-2.88425 16.5791,-9.1819 21.1606,-18.2067 4.53544,-8.93268 5.02087,-18.8563 2.14252,-27.6744z"/>
    <path id="_348170920" class="fil5" d="M1070.99 856.166c-2.87835,-8.82048 -9.12875,-16.5449 -18.0579,-21.0792 -9.03662,-4.58859 -19.0099,-5.10237 -27.8292,-2.22638 -8.70827,2.84055 -16.3854,9.10985 -20.9634,18.124 -4.53898,8.93977 -5.02678,18.8776 -2.14252,27.7099 2.88189,8.82638 9.13465,16.5602 18.0791,21.1004 9.00709,4.57323 18.9036,5.09882 27.6107,2.25236 8.8252,-2.88425 16.5791,-9.18308 21.1606,-18.2079 4.53544,-8.9315 5.02087,-18.8563 2.14252,-27.6732z"/>
    <path id="_348170968" class="fil5" d="M685.599 700.518c66.8126,-163.213 157.373,-255.269 236.975,-282.514 34.154,-11.6894 66.7725,-11.9315 95.517,-1.20354 28.9099,10.7882 53.1721,32.3788 70.4174,64.2815 38.6504,71.5111 41.6386,198.327 -22.0736,373.003l-42.7394 -15.5988c58.7611,-161.099 57.9437,-274.471 24.8445,-335.709 -11.8264,-21.8788 -27.7914,-36.437 -46.3784,-43.3737 -18.7524,-6.99804 -40.9122,-6.53977 -64.9264,1.67953 -68.5583,23.465 -148.192,106.753 -209.501,256.521l-42.1359 -17.087z"/>
   </g>
  </g>
 </g>
</svg>
