<svg xmlns="http://www.w3.org/2000/svg" viewBox="0 0 512 512">
  <defs>
    <style>
      .cls-1 {
        fill: #ff4957;
      }

      .cls-2 {
        fill: #d8263c;
      }

      .cls-3 {
        fill: #d7e816;
      }

      .cls-4 {
        fill: #f62d3d;
      }

      .cls-5 {
        fill: #e01e2f;
      }

      .cls-6 {
        fill: #ff7e89;
      }

      .cls-7 {
        fill: #ff616f;
      }

      .cls-8 {
        fill: #ff97a0;
      }

      .cls-9 {
        fill: #c71229;
      }
    </style>
  </defs>
  <title>E Commerce_512px</title>
  <g id="App_Store" data-name="App Store">
    <g>
      <rect class="cls-1" x="21.33333" y="21.33333" width="469.33333" height="469.33333" rx="42.66667" ry="42.66667"/>
      <path class="cls-2" d="M135.32037,206.86851c66.54308,66.54307,174.81627,66.54284,241.35912,0a170.63749,170.63749,0,0,0,49.547-132.96531,10.66673,10.66673,0,0,0-21.28134,1.48971,149.099,149.099,0,0,1-29.21119,100.071l-.00576.00759c-.023.03131-.04788.06445-.07158.09553l-.00369.00552c-.02371.03107-.04764.0633-.07135.09437l-.00691.00967c-.0267.035-.04741.06307-.07365.09852l-.00047.00046c-.17654.23455-.36114.47808-.53884.71194l-.01013.01381-.0679.08908-.00829.01012c-.02348.03177-.04534.06008-.06905.09115l-.00829.01013-.07.09207-.00714.009-.07089.093-.00645.00829c-.15514.2021-.31143.40534-.46772.60675l-.00621.008c-.02095.0274-.04811.06192-.06906.08931l-.01381.0175-.06284.08125-.01588.02049c-.02141.02693-.04373.0557-.06468.08309l-.01105.01381c-.02371.03107-.04327.05524-.06721.08655l-.01151.01427c-.02394.0313-.04626.05915-.07.09023l-.00668.00851c-.13028.16619-.26286.33468-.39314.50087l-.01174.0145c-.02141.02693-.04719.05916-.06813.08655l-.01036.0122c-.02394.0313-.04328.05524-.06767.08609l-.01289.01657-.06537.08194-.01474.01842c-.02094.02739-.04373.0557-.06514.08263l-.01289.01565-.06882.08724-.00967.01151-.07112.08954-.00806.0099c-.104.13074-.215.2693-.31949.39959l-.00552.00736c-.02486.03038-.04811.06008-.073.09046l-.01266.01542-.06583.08241-.017.02071c-.02141.02693-.03982.05-.06169.07642l-.01841.023-.06077.0755-.01956.02417c-.02187.02647-.04052.04971-.06192.07665l-.01588.01956c-.02187.02647-.04328.0534-.06537.0801l-.0152.01888-.07526.09276-.00162.00253c-.10887.13373-.21728.26609-.32616.39982l-.00368.00368-.07481.09138-.01381.0175-.06675.08056-.01634.02c-.02141.02694-.03844.04765-.06054.07435l-.02325.02785c-.01887.02256-.03982.04811-.05823.07113l-.02118.02486c-.01841.023-.04419.05432-.06307.07688l-.015.01864c-.0221.0267-.04834.05755-.0702.084l-.01036.01312c-.02509.03061-.05018.0603-.07527.09092l-.00576.00667c-.08148.099-.16434.19842-.24652.29716l-.00414.00507c-.02555.03015-.05018.05938-.075.08977l-.017.02071c-.02233.026-.04258.05087-.06514.07711l-.01611.0198-.06468.07757-.01865.02232-.06192.07389-.02071.0244-.06008.07112-.02256.02717-.06145.07342-.01842.02118c-.02209.0267-.04143.04972-.064.076l-.01887.02256-.07849.09322-.00046.00046c-.0831.09782-.166.19634-.24928.2944l-.01105.01289-.07159.08447-.01381.01565c-.0221.0267-.04373.052-.06629.07826l-.02118.02486-.06168.07182-.02118.02486-.06192.073-.01933.0221-.06607.07711-.01634.01911-.06721.07826-.01542.01818-.0755.08839-.00575.00667c-.084.09783-.16849.19519-.25251.293l-.00806.009-.07388.08585-.01842.02118c-.02255.02624-.041.04742-.064.0732l-.02394.02762c-.0191.02279-.03867.04511-.05823.06744l-.02509.02877-.05777.06606-.02717.03177-.05639.06468-.02555.02923-.05915.06744-.02417.02785c-.02256.02624-.04051.047-.06376.073l-.01819.02095-.06744.07757-.0168.01864c-.05524.06353-.113.12867-.16872.19174l-.00276.00368-.0808.09184-.01726.01911-.06376.073-.02854.03223-.0557.06307-.029.03268-.05386.06031-.03061.03522c-.0198.02255-.0343.0389-.05455.061l-.02947.03315c-.01611.01887-.03591.04051-.05225.05962l-.03291.03659c-.01957.02233-.03315.03775-.05317.05962l-.02947.03315-.05892.06629-.02417.02693-.06836.07665-.01543.01726c-.05961.067-.11094.12384-.17056.19082l-.01036.01128c-.02324.026-.05064.05708-.07434.08263l-.01911.02187-.06537.07273-.02325.026c-.02025.0221-.04005.04374-.05984.0663l-.02924.032-.05662.06307-.02624.029-.06008.06652-.026.02877c-.02.02187-.0389.04351-.05915.06561l-.02578.02854-.06008.0656-.026.02877c-.02.02187-.04719.05179-.06675.07412l-.0168.01772-.07872.087-.00668.00759-.17286.18944-.01658.01749c-.02324.026-.04649.0511-.06974.07711l-.02072.02256-.0626.06813-.03039.03315-.05478.05939-.03407.03682-.04948.0541c-.011.012-.026.02785-.0366.04028l-.05018.05386-.03522.038c-.0168.01864-.03314.03683-.05041.055l-.035.03775c-.01681.01864-.0366.03936-.05341.058l-.03176.03452-.06008.06468-.02509.02693c-.0267.02947-.05248.05709-.07987.08632l-.006.006c-.0267.02947-.05985.06445-.08678.09415l-.01611.017-.07.0755-.02785.02969c-.02025.0221-.03614.0389-.05685.06054l-.03729.04005-.04834.052-.038.04074-.04857.05133-.03728.04005c-.01681.01865-.03361.03637-.05087.05455-.01105.012-.02256.0244-.0343.03614-.01657.01842-.03545.03821-.05271.0564l-.03453.03728-.0534.05617c-.01128.0122-.02118.023-.03291.03475-.01658.01842-.03983.04259-.05709.06077l-.02946.03131c-.02026.02209-.04258.04534-.06353.06721l-.023.02486c-.0244.02532-.05294.0557-.07688.08148l-.01542.01634c-.02785.02877-.05455.05732-.08194.08655l-.02371.02463-.064.06767-.02762.02854-.05985.06353c-.01151.01151-.02025.02118-.03153.03338-.02072.02163-.03338.03429-.05386.05662-.01151.01151-.026.02693-.03706.0389l-.05.05179c-.01312.014-.02555.02739-.03913.041l-.04742.05018c-.01358.01358-.02555.02647-.03867.04051-.01772.01773-.03406.035-.05133.05317l-.03637.03821c-.01358.01451-.03636.03821-.05041.05225l-.03751.03937c-.01727.01818-.03752.03936-.05525.05708l-.0313.03314-.06675.06952-.02072.02164-.08908.09184-.00552.00644-.08125.084-.03154.03245-.05616.058-.035.0359c-.01726.01819-.03568.03752-.0534.05525-.01105.012-.02578.0267-.03752.03844-.01726.01818-.03292.03475-.05064.05248-.01312.014-.02371.02463-.03729.03821l-.05041.05225-.04005.041-.049.05087c-.01358.01358-.0237.02371-.03682.03775l-.05456.05547-.03475.03568-.055.05685-.0336.03361-.05617.058-.03337.03338c-.0244.02532-.05064.05248-.0755.07734l-.012.012c-.02808.029-.06054.06238-.08908.09092l-.026.02693c-.02117.02117-.04189.04189-.06284.06376l-.03406.03406c-.01727.01819-.0366.03752-.05432.05525l-.03752.03844c-.01427.01427-.03821.03821-.052.05294l-.03867.03867c-.018.018-.03223.03222-.04949.05041l-.041.041c-.01427.01427-.03384.03383-.04765.04857l-.043.043-.04627.04626-.04166.04259-.04972.04972-.04051.04051c-.01773.01772-.03269.03268-.05.05087l-.03821.03821-.05524.05524-.03522.03522-.08862.08861h0a149.33321,149.33321,0,0,1-211.18922,0,10.66667,10.66667,0,0,0-15.08495,15.08495Z"/>
      <circle class="cls-2" cx="117.33333" cy="74.66667" r="32"/>
      <circle class="cls-2" cx="394.66667" cy="74.66667" r="32"/>
      <path class="cls-3" d="M394.66667,64A10.66636,10.66636,0,0,0,384,74.66667V85.33346A127.99987,127.99987,0,0,1,256.00013,213.33333h-.00026A127.99987,127.99987,0,0,1,128,85.33346V74.66667a10.66667,10.66667,0,1,0-21.33333,0V85.33348A149.33319,149.33319,0,0,0,255.99985,234.66667h.0003A149.33319,149.33319,0,0,0,405.33333,85.33348V74.66667A10.66636,10.66636,0,0,0,394.66667,64Z"/>
      <rect class="cls-4" x="21.33333" y="320" width="469.33333" height="170.66667" rx="42.66667" ry="42.66667"/>
      <path class="cls-5" d="M64,320h.00006a51.50306,51.50306,0,0,1,36.41817,15.0849l33.83017,33.83017a51.50316,51.50316,0,0,1,15.08493,36.41824v0A51.50319,51.50319,0,0,1,134.2484,441.7516l-33.83017,33.83017a51.50306,51.50306,0,0,1-36.41817,15.0849H64A42.66667,42.66667,0,0,1,21.33333,448V362.66667A42.66667,42.66667,0,0,1,64,320Z"/>
      <path class="cls-6" d="M42.66667,405.33333H469.33333a21.33334,21.33334,0,0,1,21.33334,21.33334V448A42.66663,42.66663,0,0,1,448,490.66667H64A42.66663,42.66663,0,0,1,21.33333,448V426.66667A21.33334,21.33334,0,0,1,42.66667,405.33333Z"/>
      <path class="cls-7" d="M134.2487,441.7513a51.503,51.503,0,0,0,15.08463-36.418H42.66667a21.33272,21.33272,0,0,0-21.33334,21.33334V448A42.66712,42.66712,0,0,0,64,490.66667,51.50625,51.50625,0,0,0,100.418,475.582Z"/>
      <path class="cls-5" d="M448,320h-.00006a51.50306,51.50306,0,0,0-36.41817,15.0849L377.7516,368.91507a51.50316,51.50316,0,0,0-15.08493,36.41824v0A51.50319,51.50319,0,0,0,377.7516,441.7516l33.83017,33.83017a51.50306,51.50306,0,0,0,36.41817,15.0849H448A42.66667,42.66667,0,0,0,490.66667,448V362.66667A42.66667,42.66667,0,0,0,448,320Z"/>
      <path class="cls-7" d="M377.7513,441.7513a51.503,51.503,0,0,1-15.08463-36.418H469.33333a21.33272,21.33272,0,0,1,21.33334,21.33334V448A42.66712,42.66712,0,0,1,448,490.66667,51.50625,51.50625,0,0,1,411.582,475.582Z"/>
      <rect class="cls-8" x="149.33333" y="405.33333" width="213.33333" height="21.33333" rx="10.66666" ry="10.66666"/>
      <rect class="cls-5" x="149.33333" y="384" width="213.33333" height="21.33333" rx="10.66666" ry="10.66666"/>
      <rect class="cls-9" x="42.66667" y="384" width="106.66667" height="21.33333" rx="10.66666" ry="10.66666"/>
      <rect class="cls-9" x="362.66667" y="384" width="106.66667" height="21.33333" rx="10.66666" ry="10.66666"/>
      <rect class="cls-6" x="64" y="21.33333" width="384" height="21.33333" rx="10.66666" ry="10.66666"/>
      <rect class="cls-8" x="426.66667" y="85.33335" width="42.66667" height="127.99998" rx="21.33331" ry="21.33331"/>
      <rect class="cls-8" x="426.66667" y="234.66667" width="42.66667" height="64" rx="21.33331" ry="21.33331"/>
      <rect class="cls-4" x="21.33333" y="64.00002" width="42.66667" height="255.99996" rx="21.33331" ry="21.33331"/>
    </g>
  </g>
</svg>
